HIERARCHY
ROOT Hips
{
  OFFSET 3.13124 94.3669 -3.18751
  CHANNELS  6 Xposition Yposition Zposition Zrotation Xrotation Yrotation
  JOINT LeftUpLeg
  {
    OFFSET 8.64259 1.95398 -2.38835
    CHANNELS 3 Zrotation Xrotation Yrotation
    JOINT LeftLeg
    {
      OFFSET 43.7702 0 0
      CHANNELS 3 Zrotation Xrotation Yrotation
      JOINT LeftFoot
      {
        OFFSET 40.6238 0 0
        CHANNELS 3 Zrotation Xrotation Yrotation
        JOINT LeftToeBase
        {
          OFFSET 12.7242 0 0
          CHANNELS 3 Zrotation Xrotation Yrotation
          End Site
          {
            OFFSET 0 0 0
          }
        }
      }
    }
  }
  JOINT RightUpLeg
  {
    OFFSET -8.2249 1.95398 -2.59336
    CHANNELS 3 Zrotation Xrotation Yrotation
    JOINT RightLeg
    {
      OFFSET 43.5653 0 0
      CHANNELS 3 Zrotation Xrotation Yrotation
      JOINT RightFoot
      {
        OFFSET 40.6238 0 0
        CHANNELS 3 Zrotation Xrotation Yrotation
        JOINT RightToeBase
        {
          OFFSET 12.7242 0 0
          CHANNELS 3 Zrotation Xrotation Yrotation
          End Site
          {
            OFFSET 0 0 0
          }
        }
      }
    }
  }
  JOINT Spine
  {
    OFFSET 0.165834 0.87714 6.61349
    CHANNELS 3 Zrotation Xrotation Yrotation
    JOINT Spine1
    {
      OFFSET 7.38962 1.71661e-005 0
      CHANNELS 3 Zrotation Xrotation Yrotation
      JOINT Spine2
      {
        OFFSET 11.9445 1.14441e-005 0
        CHANNELS 3 Zrotation Xrotation Yrotation
        JOINT Spine3
        {
          OFFSET 14.7254 4.19617e-005 0
          CHANNELS 3 Zrotation Xrotation Yrotation
          JOINT Spine4
          {
            OFFSET 10.9679 0 0
            CHANNELS 3 Zrotation Xrotation Yrotation
            JOINT RightShoulder
            {
              OFFSET 2.46616 -1.6653 3.69651
              CHANNELS 3 Zrotation Xrotation Yrotation
              JOINT RightArm
              {
                OFFSET 13.0012 0 0
                CHANNELS 3 Zrotation Xrotation Yrotation
                JOINT RightForeArm
                {
                  OFFSET 28.7848 1.52588e-005 0
                  CHANNELS 3 Zrotation Xrotation Yrotation
                  JOINT RightHand
                  {
                    OFFSET 26.5688 1.52588e-005 0
                    CHANNELS 3 Zrotation Xrotation Yrotation
                    End Site
                    {
                      OFFSET 0 0 0
                    }
                  }
                }
              }
            }
            JOINT LeftShoulder
            {
              OFFSET 2.38034 -1.29275 -3.75231
              CHANNELS 3 Zrotation Xrotation Yrotation
              JOINT LeftArm
              {
                OFFSET 16.3182 6.10352e-005 0
                CHANNELS 3 Zrotation Xrotation Yrotation
                JOINT LeftForeArm
                {
                  OFFSET 27.0901 0 0
                  CHANNELS 3 Zrotation Xrotation Yrotation
                  JOINT LeftHand
                  {
                    OFFSET 24.5451 1.52588e-005 0
                    CHANNELS 3 Zrotation Xrotation Yrotation
                    End Site
                    {
                      OFFSET 0 0 0
                    }
                  }
                }
              }
            }
            JOINT Neck
            {
              OFFSET 5.0226 -0.0266342 0
              CHANNELS 3 Zrotation Xrotation Yrotation
              JOINT Head
              {
                OFFSET 6.69363 2.86102e-005 0
                CHANNELS 3 Zrotation Xrotation Yrotation
                End Site
                {
                  OFFSET 0 0 0
                }
              }
            }
          }
        }
      }
    }
  }
}
MOTION
Frames:	5
Frame Time:	0.0333333
2.67056 98.0537 -16.8193 81.3788 -89.992 81.4393 -171.684 2.75003 92.2046 -8.7428 8.11372 1.95788 63.2847 1.13946 0.569407 28.7808 6.26737e-006 -2.32938e-006 179.066 1.89121 88.4556 -7.54086 -0.826816 -0.051634 62.7022 -1.25925 -0.637699 28.7808 1.41042e-005 2.50878e-005 0.00485395 6.33813 -90.0611 14.1922 5.13767e-006 -0.0103068 2.5213 6.55467e-006 -0.00895744 -20.0139 -4.98641e-006 -1.67281e-006 -0.00120537 -9.31803e-018 -7.76503e-019 100.808 -18.9897 -85.5112 -6.72626 39.5212 -13.3016 -0.14382 0.280996 -1.95178 -5.37983 -0.320009 -0.0162415 -79.0402 -21.8558 94.2042 19.9684 -35.4176 -0.539963 -0.326952 35.2728 -10.668 0.337357 0.089735 3.54802 1.75778 -0.000645037 0.00543267 -7.41193 0.00204529 -0.00495486 
2.66669 98.0608 -16.8353 78.758 -89.8929 78.8245 -171.687 2.77528 92.2072 -8.69832 8.1665 1.96243 63.2381 1.06107 0.524017 28.7808 6.26737e-006 -2.32938e-006 179.064 1.74007 88.4597 -7.19289 -0.743874 -0.0467428 62.5368 -1.24346 -0.625558 28.7808 1.41042e-005 2.50878e-005 0.00556115 6.33805 -90.0692 14.1922 5.57098e-005 -0.0103068 2.5213 5.77485e-005 -0.00895744 -20.0139 4.02575e-005 2.60786e-005 -0.00120537 4.48497e-005 2.78531e-005 100.842 -18.882 -85.5052 -6.80352 39.4931 -13.1625 -0.114227 0.280991 -1.98308 -5.37983 -0.320009 -0.0162415 -79.028 -21.8742 94.1489 20.0486 -35.4286 -0.504126 -0.128405 36.0128 -10.7344 0.233217 0.0902639 3.54751 1.8293 -0.0120116 0.0878159 -7.43553 0.0327825 -0.0792469 
2.67005 98.0743 -16.8539 79.2711 -89.785 79.3794 -171.686 2.72632 92.2403 -8.48811 8.28042 1.97839 63.136 1.02917 0.507432 28.7808 6.26737e-006 -2.32938e-006 179.045 1.00687 88.5084 -5.62515 -0.646754 -0.040894 61.7542 -1.2305 -0.604305 28.7808 1.41042e-005 2.50878e-005 0.00835828 6.33748 -90.1095 14.1922 -0.0010302 -0.0103068 2.5213 -0.00103757 -0.00895744 -20.0139 -0.000897855 -0.00056384 -0.00120538 -0.000899308 -0.000561533 100.901 -18.8076 -85.3423 -6.76021 39.5256 -13.2429 -0.147505 0.280984 -2.02111 -5.37983 -0.320009 -0.0162415 -79.0217 -21.819 94.1681 20.0047 -35.4514 -0.583319 -0.140011 36.1051 -10.6761 0.43588 0.0990888 3.35452 1.99044 -0.0295914 0.10654 -7.56026 0.0355632 -0.0784086 
2.66853 98.0794 -16.8715 88.3093 -89.6816 88.4073 -171.68 2.73203 92.2315 -8.51966 8.40636 2.00886 63.1102 0.991605 0.484121 28.7808 6.26737e-006 -2.32938e-006 179.047 0.998535 88.4943 -5.69195 -0.553297 -0.0356367 61.8023 -1.25481 -0.619874 28.7808 1.41042e-005 2.50878e-005 -0.00502237 6.33753 -90.1065 14.1922 -0.0287638 -0.0103068 2.52129 -0.0290482 -0.00895744 -20.0139 -0.025239 -0.0155945 -0.00121224 -0.0252417 -0.0156064 100.872 -18.6716 -85.369 -6.82036 39.5315 -13.1578 -0.152226 0.280907 -2.06938 -5.37983 -0.320009 -0.0162415 -79.021 -21.832 94.2488 20.0297 -35.5329 -0.58121 -0.117228 36.1825 -10.6046 0.722043 0.111455 3.09662 2.0213 0.0554096 0.191256 -7.57018 0.0339544 -0.0724019 
2.66517 98.0746 -16.8908 91.3729 -89.5921 91.4544 -171.668 2.76319 92.2224 -8.57637 8.50768 2.01732 63.1125 0.986098 0.47944 28.7808 6.26737e-006 -2.32938e-006 179.062 1.40931 88.4854 -6.57432 -0.460598 -0.0306524 62.2204 -1.27631 -0.639703 28.7808 1.41042e-005 2.50878e-005 -0.0069992 6.3378 -90.0892 14.1922 -0.0297849 -0.0103068 2.52129 -0.0300223 -0.00895744 -20.0139 -0.026528 -0.0149291 -0.00121228 -0.0265194 -0.014932 100.926 -18.6116 -85.2386 -6.8667 39.5664 -13.142 -0.158742 0.279841 -2.07474 -5.37983 -0.320009 -0.0162415 -79.0291 -21.8006 94.2289 20.0847 -35.5573 -0.584696 -0.0867262 36.3863 -10.5303 0.747058 0.101848 2.68671 2.10049 0.0201991 0.200734 -7.59717 -0.00210353 -0.0746425 
